<svg xmlns="http://www.w3.org/2000/svg" width="128.268" height="24.444" viewBox="0 0 128.268 24.444">
  <path id="Path_1136" data-name="Path 1136" d="M43.476,25.252c2.24,0,3.612-.392,4.62-1.4.98-.98,1.484-2.688,1.484-5.068V17.608c0-2.492-.42-4.2-1.288-5.152a4.811,4.811,0,0,0-3.864-1.428,4.975,4.975,0,0,0-3.36,1.036h-.056V6.744c0-.56-.2-.7-.784-.7H38.464c-.644,0-.784.14-.784.7V20.38c0,2.212.588,3.276,1.736,4.06a7.049,7.049,0,0,0,4.06.812Zm.028-2.688a2.524,2.524,0,0,1-2.1-.7,3.672,3.672,0,0,1-.392-1.96v-3.78a2.364,2.364,0,0,1,.616-1.876,3,3,0,0,1,1.96-.5,2.386,2.386,0,0,1,2.072.756c.448.644.532,1.4.532,3.22v.868c0,1.9-.168,2.688-.588,3.22a2.519,2.519,0,0,1-2.1.756ZM54.2,9.852A1.75,1.75,0,0,0,56.16,7.92V7.752a1.771,1.771,0,0,0-1.96-1.96h-.14a1.771,1.771,0,0,0-1.96,1.96V7.92a1.75,1.75,0,0,0,1.96,1.932ZM55.012,25c.588,0,.784-.14.784-.7V11.98c0-.56-.2-.7-.784-.7H53.248c-.644,0-.784.14-.784.7V24.3c0,.56.14.7.784.7Zm9.548.252A5.687,5.687,0,0,0,69.012,23.6Q70.44,22,70.44,18.56v-.84a7.521,7.521,0,0,0-1.428-5.04,5.607,5.607,0,0,0-4.452-1.652,5.607,5.607,0,0,0-4.452,1.652,7.521,7.521,0,0,0-1.428,5.04v.84q0,3.444,1.428,5.04a5.687,5.687,0,0,0,4.452,1.652Zm0-2.66a2.048,2.048,0,0,1-1.876-.756c-.42-.532-.616-1.652-.616-3.416v-.588c0-1.736.2-2.856.616-3.388a2.706,2.706,0,0,1,3.752,0c.42.532.616,1.652.616,3.388v.588c0,1.764-.2,2.884-.616,3.416A2.048,2.048,0,0,1,64.56,22.592ZM78.2,25c.476,0,.644-.14.644-.672V22.872c0-.532-.168-.672-.644-.672h-.84c-.588,0-.812-.252-.812-.924V6.744c0-.56-.14-.7-.784-.7H74c-.644,0-.784.14-.784.7v14.84a3.824,3.824,0,0,0,.812,2.744,3.089,3.089,0,0,0,2.3.672H78.2Zm8.568.252a11.475,11.475,0,0,0,4.06-.728c.532-.2.616-.336.5-.784L90.964,22.4q-.126-.5-.5-.5a1,1,0,0,0-.28.056,8.937,8.937,0,0,1-3.024.588,3.911,3.911,0,0,1-2.464-.56,3.168,3.168,0,0,1-.7-2.24h7c.588,0,.756-.224.756-.812v-1.9c0-2.576-.448-3.864-1.428-4.732a5.763,5.763,0,0,0-3.948-1.26c-4.172,0-5.768,2.156-5.768,6.72V18.5c0,2.66.42,4.228,1.456,5.32q1.386,1.428,4.7,1.428ZM88.052,17.1H83.936a4.327,4.327,0,0,1,.728-2.856,2.168,2.168,0,0,1,1.6-.56,2.1,2.1,0,0,1,1.624.532,3.987,3.987,0,0,1,.532,2.492C88.416,16.964,88.36,17.1,88.052,17.1Zm11.116,8.148c1.652,0,2.52-.448,3.08-1.428h.056l.168.672a.583.583,0,0,0,.672.5h1.288c.392,0,.588-.168.588-.532V15.62c0-1.932-.42-3-1.456-3.7a6.72,6.72,0,0,0-4.032-.9A13.493,13.493,0,0,0,95.3,11.7c-.448.112-.532.364-.42.84l.252,1.316c.056.336.224.5.476.5a.659.659,0,0,0,.224-.056,11.319,11.319,0,0,1,3.444-.532c1.932,0,2.408.392,2.408,1.82v.756c-.644-.028-1.148-.056-1.568-.056H99.112a6.292,6.292,0,0,0-4.088,1.036,4,4,0,0,0-1.176,3.248v.644a3.9,3.9,0,0,0,1.2,3.136,4.315,4.315,0,0,0,3.08.9h1.036Zm.7-2.66H98.86a1.851,1.851,0,0,1-1.232-.336,1.626,1.626,0,0,1-.42-1.26V20.66a1.7,1.7,0,0,1,.42-1.372,2.256,2.256,0,0,1,1.456-.336h.98c.448,0,.98.028,1.624.056v1.708c0,1.316-.56,1.876-1.82,1.876ZM110.788,25c.588,0,.784-.14.784-.7V17.16a3.224,3.224,0,0,1,.644-2.38,2.932,2.932,0,0,1,2.268-.7h.5c.588,0,.784-.168.784-.644V11.952c0-.532-.2-.672-.784-.672H114.6a4,4,0,0,0-3.724,1.82h-.056l-.2-1.316c-.028-.42-.252-.5-.728-.5h-.98c-.476,0-.672.2-.672.644V24.3c0,.56.14.7.784.7h1.764Zm9.66,0c.588,0,.784-.14.784-.7V16.152c0-1.092.168-1.568.588-1.932a2.635,2.635,0,0,1,1.792-.5,2.524,2.524,0,0,1,1.848.588,2.8,2.8,0,0,1,.588,2.184V24.3c0,.56.14.7.784.7H128.6c.588,0,.784-.14.784-.7V16.656a7.17,7.17,0,0,0-.756-3.752c-.9-1.316-2.24-1.876-4.256-1.876a5.046,5.046,0,0,0-3.808,1.428h-.084l-.14-.672c-.084-.42-.252-.5-.728-.5h-1.036c-.476,0-.672.2-.672.644V24.3c0,.56.14.7.784.7ZM134.42,9.852a1.75,1.75,0,0,0,1.96-1.932V7.752a1.771,1.771,0,0,0-1.96-1.96h-.14a1.771,1.771,0,0,0-1.96,1.96V7.92a1.75,1.75,0,0,0,1.96,1.932ZM135.232,25c.588,0,.784-.14.784-.7V11.98c0-.56-.2-.7-.784-.7h-1.764c-.644,0-.784.14-.784.7V24.3c0,.56.14.7.784.7Zm6.776,0c.588,0,.784-.14.784-.7V16.152c0-1.092.168-1.568.588-1.932a2.635,2.635,0,0,1,1.792-.5,2.524,2.524,0,0,1,1.848.588,2.8,2.8,0,0,1,.588,2.184V24.3c0,.56.14.7.784.7h1.764c.588,0,.784-.14.784-.7V16.656a7.17,7.17,0,0,0-.756-3.752c-.9-1.316-2.24-1.876-4.256-1.876a5.046,5.046,0,0,0-3.808,1.428h-.084l-.14-.672c-.084-.42-.252-.5-.728-.5h-1.036c-.476,0-.672.2-.672.644V24.3c0,.56.14.7.784.7h1.764Zm17.752,5.236c2.268,0,3.92-.42,4.9-1.26a3.6,3.6,0,0,0,1.288-3.052v-.252a4.315,4.315,0,0,0-2.268-3.7,5.244,5.244,0,0,0,1.68-4.34v-.868c0-3.052-.728-4.816-3.08-5.488.224-.336.476-.42,1.344-.42h1.148c.448,0,.56-.112.56-.588V9.124c0-.476-.14-.616-.56-.616h-.98c-2.1,0-3.3.756-3.948,2.52h-.364a6.674,6.674,0,0,0-4.116,1.092c-1.232.98-1.764,2.324-1.764,4.648v.868c0,2.156.56,3.7,1.708,4.564a6.391,6.391,0,0,0,4.172,1.148,9.352,9.352,0,0,0,1.82-.168,2.38,2.38,0,0,1,1.288,2.184v.2a1.847,1.847,0,0,1-.5,1.428,3.842,3.842,0,0,1-2.52.644,11.547,11.547,0,0,1-4.452-.98,1.445,1.445,0,0,0-.308-.056c-.224,0-.392.14-.476.448l-.392,1.26a.818.818,0,0,0-.056.252c0,.308.168.5.532.644a15.193,15.193,0,0,0,5.348,1.036Zm-.28-9.52a2.345,2.345,0,0,1-1.876-.588c-.476-.56-.616-1.288-.616-2.716v-.5a4.013,4.013,0,0,1,.616-2.688,2.454,2.454,0,0,1,1.876-.56,2.81,2.81,0,0,1,1.9.56c.476.448.588,1.316.588,2.688v.5a4.521,4.521,0,0,1-.588,2.716C161.02,20.576,160.46,20.716,159.48,20.716Z" transform="translate(-37.68 -5.792)" fill="#fff"/>
</svg>
