<svg xmlns="http://www.w3.org/2000/svg" width="143.704" height="29.799" viewBox="0 0 143.704 29.799">
  <g id="Group_16_Copy" data-name="Group 16 Copy" transform="translate(0 0)">
    <path id="Combined_Shape" data-name="Combined Shape" d="M136.636,29.8c-4.571,0-8.4-1.449-11.062-4.19a14.952,14.952,0,0,1-3.944-10.7c0-9.322,5.61-14.887,15.006-14.887L143.7,0V3.061l-7.068.023c-7.175,0-11.459,4.421-11.459,11.826,0,7.268,4.391,11.783,11.459,11.783l7.068-.022v3.108ZM0,29.8H0V26.737l7.168-.023c7.127,0,11.381-4.42,11.381-11.824,0-7.268-4.361-11.784-11.381-11.784L0,3.129V.023L7.168,0c4.541,0,8.341,1.449,10.989,4.19a15.011,15.011,0,0,1,3.917,10.7c0,9.322-5.572,14.887-14.906,14.887Zm82.347-2.206v0L70.761,3.312h3.95l7.637,16,7.638-16h3.951L82.349,27.591Zm31.456-1.1H99.457V22.874H113.8v3.614Zm-83.239,0H26.613L38.2,2.209,49.79,26.487H45.839l-7.637-16-7.637,16Zm34.677,0H55.309V23h3.123V6.8H55.309V3.312h9.933V6.8H62.118V23h3.124v3.489Zm46.814-9.78h-12.6V13.092h12.6v3.615Zm1.4-9.78h-14V3.312h14V6.927Z" transform="translate(0 0)" fill="#fff"/>
  </g>
</svg>
