<svg width="131" height="28" viewBox="0 0 131 28" fill="none" xmlns="http://www.w3.org/2000/svg">
<path d="M6.3125 18.8398V8.49023L9.66211 8.66797V7.54688L6.3125 7.72461V4.22461C6.3125 2.25586 7.00977 1.42188 8.21289 1.42188C8.44531 1.42188 8.65039 1.44922 8.8418 1.50391C8.19922 1.64062 7.70703 2.1875 7.70703 2.91211C7.70703 3.74609 8.34961 4.375 9.16992 4.375C9.97656 4.375 10.6191 3.74609 10.6191 2.91211C10.6191 1.58594 9.52539 0.505859 7.26953 0.505859C4.4668 0.505859 2.52539 2.21484 2.52539 5.49609V7.57422L0.912109 8.18945V8.66797H2.51172V18.9902C2.51172 19.9199 2.29297 20.1934 0.912109 20.4121V21H8.08984V20.4121C6.53125 20.166 6.3125 19.9062 6.3125 18.8398ZM14.0918 5.3457C15.2129 5.3457 16.1152 4.51172 16.1152 3.41797C16.1152 2.32422 15.2129 1.49023 14.0918 1.49023C12.9707 1.49023 12.0547 2.32422 12.0547 3.41797C12.0547 4.51172 12.9707 5.3457 14.0918 5.3457ZM16.252 7.38281L10.8379 8.02539V8.57227L11.5898 8.80469C12.3418 9.06445 12.4512 9.22852 12.4512 10.0625V18.9492C12.4512 19.9199 12.2051 20.1797 10.8379 20.4121V21H17.8516V20.4121C16.4844 20.1797 16.252 19.9199 16.252 18.9492V7.38281ZM24.4141 7.38281L19.041 8.02539V8.57227L19.793 8.80469C20.5449 9.06445 20.6543 9.22852 20.6543 10.0625V18.9492C20.6543 19.9199 20.4082 20.1797 19.041 20.4121V21H25.8906V20.4121C24.6191 20.1934 24.4551 19.9609 24.4551 19.0312V10.3496C24.9199 9.50195 25.8633 8.94141 27.1074 8.94141C28.8027 8.94141 29.8008 9.93945 29.8008 11.9492V19.0312C29.8008 19.9609 29.5957 20.207 28.3516 20.4121V21H35.2012V20.4121C33.8066 20.1797 33.5879 19.9199 33.5879 18.9492V11.5664C33.5879 8.68164 31.7148 7.30078 28.9941 7.30078C26.793 7.30078 25.1387 8.33984 24.4141 9.84375V7.38281ZM36.7324 14.3008C36.7324 18.5527 39.7676 21.2598 43.7188 21.2598C46.1387 21.2598 48.1074 20.3574 49.0508 18.9492V18.3477C48.3262 19.0859 47.1777 19.6191 45.7559 19.6191C42.8848 19.6191 40.8477 17.4043 40.5879 13.7812H49.2285C49.2695 13.5625 49.2969 13.2344 49.2969 12.9199C49.2969 9.59766 47.123 7.30078 43.4863 7.30078C39.3984 7.30078 36.7324 10.2129 36.7324 14.3008ZM40.5469 12.9473C40.5469 9.84375 41.627 8.10742 43.4863 8.10742C45.1133 8.10742 45.8789 9.77539 45.8789 12.2227C45.8789 12.5508 45.8652 12.8105 45.8516 13.0293L40.5605 13.084C40.5469 13.043 40.5469 13.002 40.5469 12.9473ZM56.2969 7.38281L50.9238 8.02539V8.57227L51.6758 8.80469C52.4277 9.05078 52.5371 9.22852 52.5371 10.0625V18.9902C52.5371 19.9199 52.3184 20.1934 50.9238 20.4121V21H58.1016V20.4121C56.5566 20.166 56.3379 19.9062 56.3379 18.8398L56.3242 11.3066C56.9668 10.6914 58.375 10.2949 59.7422 10.2949C60.4395 10.2949 61.123 10.3906 61.4648 10.5C61.6152 10.2402 61.7656 9.73438 61.7656 9.22852C61.7656 8.18945 61.2461 7.35547 60.1113 7.35547C58.8398 7.35547 57.7051 8.44922 56.2969 10.8828V7.38281ZM78.0898 14.1504C78.0898 9.83008 75.5469 7.30078 72.5527 7.30078C70.4883 7.30078 68.8203 8.35352 68.1504 9.88477V7.38281L62.7773 8.02539V8.57227L63.5156 8.80469C64.2676 9.05078 64.377 9.22852 64.377 10.0625V25.2793C64.377 26.209 64.1719 26.4824 62.7773 26.7012V27.2891H69.9551V26.7012C68.4102 26.4551 68.1777 26.1953 68.1777 25.1289V19.5645C68.752 20.5625 70.1055 21.2598 71.7324 21.2598C75.2051 21.2598 78.0898 18.5664 78.0898 14.1504ZM74.166 14.5332C74.166 17.9648 72.7441 20.1387 70.584 20.1387C69.4902 20.1387 68.5332 19.5645 68.1777 18.7988V10.3906C68.6699 9.47461 69.5312 8.94141 70.7207 8.94141C72.7578 8.94141 74.166 11.1016 74.166 14.5332ZM87.4961 21.2598C91.6523 21.2598 94.8516 18.375 94.8516 14.2324C94.8516 10.0078 91.6934 7.30078 87.5645 7.30078C83.3945 7.30078 80.209 10.1719 80.209 14.3145C80.209 18.5527 83.3672 21.2598 87.4961 21.2598ZM87.5918 20.4531C85.5684 20.4531 84.2695 18.0195 84.2695 14.1641C84.2695 10.4453 85.418 8.10742 87.4824 8.10742C89.4785 8.10742 90.7773 10.5273 90.7773 14.3828C90.7773 18.1152 89.6289 20.4531 87.5918 20.4531ZM99.7871 5.3457C100.908 5.3457 101.811 4.51172 101.811 3.41797C101.811 2.32422 100.908 1.49023 99.7871 1.49023C98.666 1.49023 97.75 2.32422 97.75 3.41797C97.75 4.51172 98.666 5.3457 99.7871 5.3457ZM101.947 7.38281L96.5332 8.02539V8.57227L97.2852 8.80469C98.0371 9.06445 98.1465 9.22852 98.1465 10.0625V18.9492C98.1465 19.9199 97.9004 20.1797 96.5332 20.4121V21H103.547V20.4121C102.18 20.1797 101.947 19.9199 101.947 18.9492V7.38281ZM110.109 7.38281L104.736 8.02539V8.57227L105.488 8.80469C106.24 9.06445 106.35 9.22852 106.35 10.0625V18.9492C106.35 19.9199 106.104 20.1797 104.736 20.4121V21H111.586V20.4121C110.314 20.1934 110.15 19.9609 110.15 19.0312V10.3496C110.615 9.50195 111.559 8.94141 112.803 8.94141C114.498 8.94141 115.496 9.93945 115.496 11.9492V19.0312C115.496 19.9609 115.291 20.207 114.047 20.4121V21H120.896V20.4121C119.502 20.1797 119.283 19.9199 119.283 18.9492V11.5664C119.283 8.68164 117.41 7.30078 114.689 7.30078C112.488 7.30078 110.834 8.33984 110.109 9.84375V7.38281ZM123.494 17.1582C123.494 20.0566 125.135 21.2598 127.336 21.2598C128.99 21.2598 130.344 20.5352 130.863 19.7422V19.1543C130.494 19.4961 129.906 19.7148 129.291 19.7148C128.102 19.7148 127.281 19.0312 127.281 17.1719V8.49023L130.672 8.66797V7.54688L127.281 7.73828V4.4707H126.871L121.895 8.18945V8.66797H123.494V17.1582Z" fill="#000"/>
</svg>
